# xmcd
#
# Track frame offsets:
#	150
#	15057
#	29044
#	45066
#	57820
#	84130
#	94560
#	105821
#	110694
#	122417
#	142800
#	157401
#	167918
#	187246
#	196888
#	214706
#
# Disc length: 3097 seconds
#
# Revision: 0
# Processed by: cddbd v1.5.1PL0 Copyright (c) Steve Scherf et al.
# Submitted via: EasyCDDAExtractor 5.0.4.1
#
DISCID=c10c1710
DTITLE=Mandy Patinkin - MAMALOSHEN
DYEAR=1900
DGENRE=
TTITLE0=Belz
TTITLE1=Hey Tsigelesh
TTITLE2=Rabbi Elimeylckh
TTITLE3=Raisins and Almonds
TTITLE4=Papirosin
TTITLE5=Ten kopeks
TTITLE6=Maia
TTITLE7=Yome, Yome
TTITLE8=Paper Is White
TTITLE9=Song of the Titanic
TTITLE10=Moth the Operator
TTITLE11=Under Your White Star
TTITLE12=American Tune
TTITLE13=Take me out to the Ball Game
TTITLE14=Der Alter Trigayner
TTITLE15=Oyfn ...
EXTD=
EXTT0=
EXTT1=
EXTT2=
EXTT3=
EXTT4=
EXTT5=
EXTT6=
EXTT7=
EXTT8=
EXTT9=
EXTT10=
EXTT11=
EXTT12=
EXTT13=
EXTT14=
EXTT15=
PLAYORDER=
